<svg width="25" height="30" viewBox="0 0 25 30" fill="none" xmlns="http://www.w3.org/2000/svg">
<path d="M23.6206 0H1.37938C0.617571 0 0 0.741085 0 1.65526V28.3447C0 29.2589 0.617571 30 1.37938 30H23.6206C24.3824 30 25 29.2589 25 28.3447V1.65526C25 0.741085 24.3824 0 23.6206 0Z" fill="#0244D2"/>
<path d="M17.1394 30V18.5963H20.3822L20.8672 14.1522H17.1394V11.3156C17.1394 10.0292 17.443 9.15084 19.0054 9.15084H21V5.16961C20.0341 5.05104 19.0635 4.99455 18.0924 5.00041C15.2206 5.00041 13.2429 7.06567 13.2429 10.8752V14.1522H10V18.5963H13.2429V30H17.1394Z" fill="white"/>
</svg>
