<svg width="28" height="25" viewBox="0 0 28 25" fill="none" xmlns="http://www.w3.org/2000/svg">
<path d="M24.0006 14.1907L16.0338 22.5149C15.5056 23.0665 14.7893 23.3764 14.0425 23.3764C13.2956 23.3764 12.5793 23.0665 12.0511 22.5149L4.08428 14.1922C3.42571 13.5102 2.90257 12.699 2.54489 11.8053C2.18722 10.9115 2.00205 9.95274 2.00002 8.98402C1.99799 8.01529 2.17913 7.05569 2.53306 6.1603C2.88699 5.26491 3.40672 4.45136 4.06242 3.76637C4.71813 3.08137 5.49689 2.53842 6.354 2.16869C7.2111 1.79895 8.12967 1.60971 9.05698 1.61183C9.98428 1.61396 10.9021 1.8074 11.7576 2.18105C12.6131 2.5547 13.3896 3.10121 14.0425 3.7892C15.3685 2.43843 17.1505 1.6878 19.0026 1.69993C20.8546 1.71205 22.6275 2.48594 23.9372 3.85396C25.2469 5.22199 25.988 7.07397 25.9999 9.00875C26.0117 10.9435 25.2934 12.8053 24.0006 14.1907Z" stroke="black" stroke-width="3" stroke-linecap="round" stroke-linejoin="round"/>
</svg>
