<svg width="297" height="77" viewBox="0 0 297 77" fill="none" xmlns="http://www.w3.org/2000/svg">
<rect x="1" y="1" width="295" height="75" stroke="black" stroke-width="2"/>
<g clip-path="url(#clip0_63_9167)">
<path d="M172.897 34.1272C174.134 34.1272 175.09 34.4847 175.821 35.1999C176.552 35.9149 176.889 36.8683 176.889 38.0601V43.7806H175.315V42.4698H175.259C174.584 43.5424 173.628 44.0787 172.503 44.0787C171.547 44.0787 170.704 43.7807 170.029 43.1849C169.411 42.589 169.017 41.7548 169.017 40.8609C169.017 39.9074 169.354 39.1328 170.029 38.5369C170.704 37.941 171.66 37.7026 172.785 37.7026C173.797 37.7026 174.584 37.8815 175.202 38.2985V37.8815C175.202 37.3252 175.007 36.7691 174.615 36.4067L174.528 36.3321C174.078 35.915 173.515 35.6766 172.897 35.6766C171.941 35.6766 171.21 36.0938 170.704 36.928L169.242 35.9744C170.142 34.723 171.322 34.1272 172.897 34.1272ZM164.968 30.0751C165.977 30.0751 166.936 30.4472 167.703 31.141L167.836 31.2668C168.623 31.9819 169.017 33.0545 169.017 34.1867C169.017 35.3189 168.623 36.3319 167.836 37.1066C167.049 37.8812 166.093 38.2983 164.968 38.2983L162.269 38.2387V43.7806H160.582V30.0751H164.968ZM173.122 39.1327C172.447 39.1327 171.885 39.3114 171.435 39.669C170.985 39.9669 170.76 40.384 170.76 40.9203C170.76 41.397 170.985 41.8141 171.322 42.0525C171.716 42.3505 172.166 42.5292 172.616 42.5292C173.246 42.5292 173.875 42.2696 174.368 41.799L174.471 41.695C175.034 41.1587 175.315 40.5032 175.315 39.7881C174.809 39.371 174.078 39.1326 173.122 39.1326M165.081 31.7434H162.269V36.5109H165.081C165.699 36.5109 166.318 36.2725 166.712 35.7958C167.611 34.902 167.611 33.4123 166.768 32.5183L166.712 32.4587C166.262 31.9821 165.699 31.6841 165.081 31.7437M185.999 34.4251L180.432 47.9519H178.745L180.826 43.2444L177.171 34.4847H178.97L181.613 41.2183H181.669L184.256 34.4847H185.999V34.4251Z" fill="#5F6368"/>
<path d="M155.577 37.0501C155.577 36.5139 155.521 35.9776 155.464 35.4413H148.436V38.4804H152.428C152.259 39.4337 151.753 40.3275 150.966 40.8639V42.8303H153.384C154.79 41.4598 155.577 39.4337 155.577 37.0502" fill="#4285F4"/>
<path d="M148.436 44.7345C150.46 44.7345 152.147 44.0194 153.385 42.8276L150.967 40.8612C150.292 41.3379 149.448 41.6358 148.436 41.6358C146.524 41.6358 144.837 40.2653 144.275 38.3584H141.801V40.3844C143.094 43.0659 145.625 44.7345 148.436 44.7345Z" fill="#34A853"/>
<path d="M144.275 38.3608C143.938 37.4074 143.938 36.3348 144.275 35.3217V33.2957H141.801C140.733 35.5006 140.733 38.1225 141.801 40.3868L144.275 38.3608Z" fill="#FBBC04"/>
<path d="M148.435 32.1019C149.503 32.1019 150.515 32.519 151.303 33.2937L153.439 31.0293C152.09 29.7183 150.29 28.9437 148.491 29.0032C145.679 29.0032 143.093 30.6718 141.855 33.3533L144.33 35.3793C144.836 33.4724 146.523 32.1019 148.435 32.1019Z" fill="#EA4335"/>
</g>
<defs>
<clipPath id="clip0_63_9167">
<rect width="45" height="19" fill="white" transform="translate(141 29)"/>
</clipPath>
</defs>
</svg>
