<svg width="63" height="62" viewBox="0 0 63 62" fill="none" xmlns="http://www.w3.org/2000/svg">
<path d="M51.1875 11.625C49.0423 13.6444 46.4912 15.1994 43.6984 16.1897C40.7531 16.7012 32.6025 12.9812 28.5863 16.7787C27.9169 17.4375 27.09 18.0963 26.2237 18.755C24.3337 17.9413 21.42 16.7012 19.2938 15.5C17.1675 14.2987 11.8125 11.625 11.8125 11.625L0 25.1875C0 25.1875 2.91375 29.0625 4.725 31.62C5.90625 33.325 7.36312 35.9212 8.30812 37.665L6.96938 39.215C6.65106 39.8423 6.53698 40.5509 6.64267 41.2443C6.74836 41.9377 7.06868 42.5822 7.56 43.09C8.12867 43.5119 8.82182 43.7395 9.53401 43.7381C10.2462 43.7367 10.9384 43.5064 11.5054 43.0822C11.2949 43.3248 11.1355 43.6062 11.0367 43.91C10.9379 44.2138 10.9015 44.534 10.9297 44.8517C10.958 45.1695 11.0502 45.4786 11.2011 45.7609C11.352 46.0432 11.5585 46.2932 11.8086 46.4961C12.4106 46.8394 13.0944 47.0195 13.7902 47.0181C14.486 47.0168 15.169 46.834 15.7697 46.4884C15.3198 47.0402 15.0736 47.726 15.0715 48.4335C15.0693 49.141 15.3113 49.8283 15.7579 50.3827C16.3382 50.5811 16.9573 50.6444 17.5667 50.5678C18.1761 50.4911 18.7591 50.2766 19.2701 49.941C19.0143 50.5341 18.9478 51.1896 19.0793 51.8208C19.2108 52.452 19.5341 53.0289 20.0064 53.475C20.6729 53.7637 21.4025 53.8823 22.1279 53.82C22.8533 53.7577 23.551 53.5164 24.1566 53.1185L26.1883 51.3089C28.0468 53.1301 30.6101 54.2577 33.4412 54.2577L33.6814 54.2539C34.6145 54.1759 35.5084 53.8494 36.2673 53.3094C37.0262 52.7695 37.6213 52.0363 37.989 51.1887C38.5639 51.4057 39.2175 51.553 39.9105 51.553C40.8397 51.553 41.7021 51.2895 42.4305 50.8361C44.7339 49.3365 44.1827 48.174 44.1827 48.174C45.0018 48.521 45.9116 48.6032 46.7812 48.409C47.6508 48.2147 48.4353 47.7539 49.0219 47.0929C49.6314 46.4792 50.0157 45.6832 50.1142 44.8305C50.2126 43.9779 50.0194 43.1173 49.5653 42.3847C49.5905 42.3985 49.6191 42.4052 49.6479 42.4041C51.3056 42.4041 52.7467 41.5051 53.4988 40.1799C53.8703 39.2382 53.9962 38.22 53.8648 37.2181C53.7334 36.2163 53.349 35.2628 52.7467 34.4449L52.7586 34.4642C55.9873 33.8442 55.8692 32.2555 57.4442 29.9305C58.9336 28.0314 60.7896 26.4406 62.9055 25.2495L51.1875 11.625ZM50.9906 38.9825C49.2581 40.6875 47.9194 39.9512 44.9663 37.7425C42.0131 35.5337 36.1463 31.3875 36.1463 31.3875C36.3864 32.5694 36.9416 33.5962 37.7252 34.4139C38.9813 35.805 42.7219 38.9825 44.4938 40.61C45.5963 41.6175 48.4313 43.6325 46.7775 45.1825C45.1237 46.7325 43.8244 45.1825 41.1075 43.0125C38.3906 40.8425 32.3269 35.495 32.3269 35.495C32.2942 36.0075 32.3721 36.521 32.5553 37.0019C32.7385 37.4827 33.023 37.92 33.39 38.285C34.0594 39.06 37.8 42.625 39.375 44.2525C40.95 45.88 42.3281 46.8487 40.9894 48.1275C39.6506 49.4062 36.9338 47.3912 35.4375 45.88C33.1144 43.6712 28.5075 39.5637 28.5075 39.5637L28.5036 39.7691C28.5036 40.8696 28.8894 41.8771 29.5391 42.6754C30.6731 44.1401 32.8781 46.0389 34.2169 47.5114C35.5556 48.9839 36.3431 50.2239 34.2169 51.3864C32.0906 52.5489 28.9406 49.6814 27.5625 48.2864V48.2786C27.5668 47.8952 27.4265 47.5238 27.1688 47.2362C26.6969 46.8083 26.1158 46.5146 25.4875 46.3863C24.8592 46.258 24.2073 46.3 23.6014 46.5077C23.85 46.2878 24.0493 46.0193 24.1865 45.7192C24.3236 45.4192 24.3956 45.0943 24.3978 44.7653C24.4001 44.4363 24.3325 44.1104 24.1994 43.8086C24.0663 43.5068 23.8707 43.2356 23.625 43.0125C23.1081 42.6271 22.4773 42.4189 21.8288 42.4196C21.1804 42.4203 20.55 42.6299 20.034 43.0164C20.2949 42.7711 20.4963 42.4711 20.6233 42.1388C20.7502 41.8064 20.7994 41.4501 20.7673 41.0964C20.7351 40.7428 20.6224 40.4008 20.4375 40.0958C20.2526 39.7909 20.0003 39.5309 19.6993 39.3351C18.9944 38.8993 18.1673 38.6945 17.3368 38.7502C16.5062 38.8059 15.715 39.1192 15.0767 39.6451C15.5033 39.1363 15.7136 38.4849 15.6637 37.8271C15.6138 37.1693 15.3076 36.5559 14.8089 36.115C14.188 35.5496 13.3985 35.196 12.5574 35.1067C11.7163 35.0174 10.8683 35.197 10.1391 35.619L7.52062 31.2674C5.70937 28.4386 3.58313 25.4936 3.58313 25.4936L12.5606 14.7599C12.5606 14.7599 15.75 16.6974 18.3881 18.1699C19.6875 18.9061 21.9319 19.8749 23.625 20.6499C20.9475 22.6261 18.7031 24.5249 19.3725 25.8424C20.5645 26.6872 21.9904 27.1533 23.4591 27.1782C24.9278 27.2031 26.3692 26.7857 27.5901 25.9819C29.1555 24.9549 30.9968 24.4111 32.8781 24.4202C34.2444 24.4202 35.5438 24.6992 36.7211 25.2069C38.9025 26.6561 42.9188 30.2211 46.5806 32.4686C51.1875 35.7624 52.0931 37.8936 50.9906 38.9786V38.9825Z" fill="black"/>
</svg>
