<svg width="25" height="30" viewBox="0 0 25 30" fill="none" xmlns="http://www.w3.org/2000/svg">
<path d="M19.1406 0H5.85938C2.62333 0 0 3.148 0 7.03125V22.9688C0 26.852 2.62333 30 5.85938 30H19.1406C22.3767 30 25 26.852 25 22.9688V7.03125C25 3.148 22.3767 0 19.1406 0Z" fill="url(#paint0_radial_70_10165)"/>
<path d="M19.1406 0H5.85938C2.62333 0 0 3.148 0 7.03125V22.9688C0 26.852 2.62333 30 5.85938 30H19.1406C22.3767 30 25 26.852 25 22.9688V7.03125C25 3.148 22.3767 0 19.1406 0Z" fill="url(#paint1_radial_70_10165)"/>
<path d="M12.5009 4C9.92085 4 9.59699 4.01368 8.58372 4.06946C7.57235 4.12558 6.88198 4.31935 6.27798 4.60374C5.65306 4.89745 5.12306 5.2904 4.59505 5.9298C4.06657 6.56907 3.74195 7.21065 3.49856 7.96677C3.26296 8.69816 3.10269 9.5342 3.05719 10.7579C3.01187 11.9846 3 12.3767 3 15.5C3 18.6233 3.0114 19.014 3.05738 20.2406C3.10393 21.4649 3.26401 22.3006 3.49875 23.0317C3.74157 23.7882 4.06619 24.4298 4.59439 25.0689C5.1223 25.7087 5.65231 26.1025 6.27674 26.3963C6.88123 26.6806 7.57168 26.8744 8.58286 26.9305C9.59623 26.9863 9.9198 27 12.4997 27C15.08 27 15.4028 26.9863 16.4161 26.9305C17.4275 26.8744 18.1186 26.6806 18.7231 26.3963C19.3477 26.1025 19.8769 25.7087 20.4048 25.0689C20.9332 24.4298 21.2578 23.7882 21.5012 23.0321C21.7348 22.3006 21.8951 21.4646 21.9426 20.2408C21.9881 19.0142 22 18.6233 22 15.5C22 12.3767 21.9881 11.9848 21.9426 10.7581C21.8951 9.53386 21.7348 8.69828 21.5012 7.96712C21.2578 7.21065 20.9332 6.56907 20.4048 5.9298C19.8764 5.29017 19.3479 4.89722 18.7225 4.60386C18.1169 4.31935 17.4261 4.12546 16.4148 4.06946C15.4014 4.01368 15.0788 4 12.4979 4H12.5009ZM11.6486 6.07239C11.9016 6.07193 12.1838 6.07239 12.5009 6.07239C15.0374 6.07239 15.338 6.08343 16.3397 6.13852C17.266 6.18981 17.7687 6.37714 18.1036 6.53457C18.5469 6.74295 18.863 6.99216 19.1953 7.39477C19.5278 7.79726 19.7336 8.18055 19.9062 8.71725C20.0363 9.12205 20.1912 9.73062 20.2334 10.8519C20.2789 12.0642 20.2888 12.4283 20.2888 15.4974C20.2888 18.5664 20.2789 18.9306 20.2334 20.1428C20.191 21.2641 20.0363 21.8727 19.9062 22.2776C19.7341 22.8143 19.5278 23.1964 19.1953 23.5987C18.8628 24.0012 18.5471 24.2503 18.1036 24.4588C17.7691 24.6169 17.266 24.8038 16.3397 24.855C15.3382 24.9101 15.0374 24.9221 12.5009 24.9221C9.96417 24.9221 9.66349 24.9101 8.66209 24.855C7.73584 24.8033 7.2331 24.616 6.89794 24.4585C6.45467 24.25 6.13794 24.0009 5.80544 23.5984C5.47294 23.196 5.26717 22.8136 5.09456 22.2767C4.9645 21.8717 4.80956 21.2632 4.76738 20.1419C4.72187 18.9296 4.71275 18.5655 4.71275 15.4945C4.71275 12.4234 4.72187 12.0613 4.76738 10.849C4.80975 9.72775 4.9645 9.11917 5.09456 8.7138C5.26679 8.1771 5.47295 7.79381 5.80554 7.39132C6.13814 6.98882 6.45467 6.73962 6.89804 6.53078C7.23291 6.37266 7.73584 6.18578 8.66209 6.13426C9.53847 6.08631 9.8781 6.07193 11.6486 6.06952V6.07239ZM17.572 7.98184C16.9426 7.98184 16.432 8.59938 16.432 9.36136C16.432 10.1232 16.9426 10.7413 17.572 10.7413C18.2013 10.7413 18.712 10.1232 18.712 9.36136C18.712 8.59949 18.2013 7.98137 17.572 7.98137V7.98184ZM12.5009 9.59423C9.80665 9.59423 7.62222 12.2385 7.62222 15.5C7.62222 18.7615 9.80665 21.4045 12.5009 21.4045C15.1952 21.4045 17.3788 18.7615 17.3788 15.5C17.3788 12.2386 15.195 9.59423 12.5007 9.59423H12.5009ZM12.5009 11.6666C14.2497 11.6666 15.6676 13.3828 15.6676 15.5C15.6676 17.617 14.2497 19.3334 12.5009 19.3334C10.752 19.3334 9.33422 17.617 9.33422 15.5C9.33422 13.3828 10.7519 11.6666 12.5009 11.6666Z" fill="white"/>
<defs>
<radialGradient id="paint0_radial_70_10165" cx="0" cy="0" r="1" gradientUnits="userSpaceOnUse" gradientTransform="translate(6.64062 32.3106) rotate(-90) scale(29.7322 23.0444)">
<stop stop-color="#FFDD55"/>
<stop offset="0.1" stop-color="#FFDD55"/>
<stop offset="0.5" stop-color="#FF543E"/>
<stop offset="1" stop-color="#C837AB"/>
</radialGradient>
<radialGradient id="paint1_radial_70_10165" cx="0" cy="0" r="1" gradientUnits="userSpaceOnUse" gradientTransform="translate(-4.1876 2.16105) rotate(80.53) scale(13.212 45.9242)">
<stop stop-color="#3771C8"/>
<stop offset="0.128" stop-color="#3771C8"/>
<stop offset="1" stop-color="#6600FF" stop-opacity="0"/>
</radialGradient>
</defs>
</svg>
