<svg width="44" height="35" viewBox="0 0 44 35" fill="none" xmlns="http://www.w3.org/2000/svg">
<g clip-path="url(#clip0_70_10183)">
<path d="M44 27.25C44 28.3992 43.4849 29.5014 42.5681 30.3141C41.6512 31.1267 40.4077 31.5833 39.1111 31.5833H4.88889C3.59227 31.5833 2.34877 31.1267 1.43192 30.3141C0.515078 29.5014 0 28.3992 0 27.25V7.74996C0 6.60069 0.515078 5.49849 1.43192 4.68583C2.34877 3.87317 3.59227 3.41663 4.88889 3.41663H39.1111C40.4077 3.41663 41.6512 3.87317 42.5681 4.68583C43.4849 5.49849 44 6.60069 44 7.74996V27.25Z" fill="#006600"/>
<path d="M0 12.0834H44V22.9167H0V12.0834Z" fill="#BB1600"/>
<path d="M39.1111 3.41663H4.88889C3.59227 3.41663 2.34877 3.87317 1.43192 4.68583C0.515078 5.49849 0 6.60069 0 7.74996L0 12.0833H44V7.74996C44 6.60069 43.4849 5.49849 42.5681 4.68583C41.6512 3.87317 40.4077 3.41663 39.1111 3.41663Z" fill="#141414"/>
<path d="M0 12.0834H44V13.1667H0V12.0834ZM0 21.8334H44V22.9167H0V21.8334Z" fill="#EEEEEE"/>
<path d="M28.1772 8.18763C28.0965 8.14538 27.9498 8.28405 27.2067 9.0153C26.9427 9.2753 26.6127 9.59922 26.2473 9.94697C25.5042 10.6544 24.7268 11.5297 25.2903 12.0432L16.4108 25.2718C16.3974 25.2913 16.3876 25.3227 16.4145 25.366C16.4563 25.4182 16.5098 25.4621 16.5717 25.4951C16.6335 25.5281 16.7023 25.5494 16.7738 25.5578H16.7775C16.8337 25.5578 16.8606 25.535 16.8741 25.5156L25.7572 12.2826C26.5223 12.443 27.0087 11.4333 27.3522 10.532C27.5233 10.0802 27.6871 9.66963 27.8178 9.3403C28.1869 8.41297 28.2529 8.22772 28.1772 8.18763Z" fill="#141414"/>
<path d="M27.2615 9.05866C26.9975 9.31866 26.6675 9.64257 26.3009 9.99141C25.218 11.0227 24.9271 11.6467 25.361 12.0151L25.383 12.0324L16.473 25.3054C16.4681 25.3141 16.4742 25.3282 16.4791 25.3347C16.5513 25.4187 16.6572 25.475 16.7749 25.4917H16.7773C16.7895 25.4917 16.8054 25.4907 16.8115 25.4809L25.7081 12.2274L25.7228 12.2057L25.7497 12.2122C26.3094 12.3531 26.7837 11.8277 27.2823 10.5092C27.4534 10.0575 27.6172 9.64691 27.748 9.31649C27.9533 8.80191 28.1318 8.3534 28.1318 8.25049C28.0315 8.30032 27.6734 8.65349 27.2615 9.05866Z" fill="white"/>
<path d="M18.7097 12.0433C19.2731 11.5298 18.497 10.6545 17.7527 9.94706C17.3872 9.59822 17.0572 9.27539 16.7932 9.01539C16.0501 8.28523 15.9034 8.14548 15.8228 8.18773C15.747 8.22889 15.813 8.41306 16.1809 9.33931C16.3117 9.66864 16.4754 10.0792 16.6466 10.531C16.9888 11.4334 17.4752 12.442 18.2416 12.2816L27.1247 25.5146C27.1381 25.5341 27.165 25.5568 27.2212 25.5568H27.2249C27.2964 25.5484 27.3652 25.5271 27.4271 25.4941C27.4889 25.4611 27.5424 25.4172 27.5842 25.3651C27.6099 25.3217 27.6013 25.2903 27.5879 25.2708L18.7097 12.0433Z" fill="#141414"/>
<path d="M18.6389 12.0151C19.0728 11.6468 18.7832 11.0228 17.6991 9.99142C17.3324 9.64259 17.0036 9.31867 16.7384 9.05867C16.3265 8.6535 15.9672 8.30034 15.8657 8.25159C15.8657 8.3545 16.0442 8.803 16.2495 9.31759C16.3803 9.648 16.5453 10.0586 16.7152 10.5103C17.2151 11.8288 17.6881 12.3542 18.2478 12.2133L18.2747 12.2068L18.2894 12.2285L27.1859 25.482C27.1921 25.4918 27.2092 25.4928 27.2202 25.4928H27.2226C27.3407 25.4772 27.4471 25.4207 27.5184 25.3358C27.5233 25.3282 27.5294 25.3141 27.5245 25.3065L18.6145 12.0335L18.6389 12.0151Z" fill="white"/>
<path d="M22.022 9.3295L22 9.31433L21.978 9.3295C18.9323 11.3553 17.4509 14.0214 17.4509 17.4794C17.4509 20.9374 18.931 23.6035 21.978 25.6304L22 25.6445L22.022 25.6304C25.0678 23.6046 26.5491 20.9385 26.5491 17.4794C26.5491 14.0203 25.0678 11.3532 22.022 9.3295Z" fill="#141414"/>
<path d="M25.5188 13.2306C24.7818 11.754 23.6231 10.479 21.9988 9.39563C20.3781 10.4779 19.2206 11.7508 18.4824 13.223C19.1241 14.5025 19.4382 15.8967 19.4382 17.4881C19.4382 19.0774 19.1253 20.4684 18.4861 21.7435C19.2243 23.2125 20.3805 24.4832 21.9975 25.5644C23.6182 24.4821 24.7756 23.2092 25.5126 21.7359C24.8759 20.4597 24.5642 19.0698 24.5642 17.4881C24.5666 15.9043 24.8795 14.5122 25.5188 13.2306Z" fill="#BB1600"/>
<path d="M22 18.5042C22.374 18.5042 22.6784 18.0449 22.6784 17.4794C22.6784 16.9139 22.374 16.4535 22 16.4535C21.626 16.4535 21.3229 16.9128 21.3229 17.4794C21.3217 18.0449 21.626 18.5042 22 18.5042ZM21.7177 15.7991C21.1041 14.9986 20.8059 13.9824 20.8059 12.7431C20.8059 11.5037 21.1041 10.4865 21.7177 9.68481V15.7991ZM22.2824 15.7991C22.8947 14.9986 23.1917 13.9824 23.1917 12.7431C23.1917 11.5037 22.8947 10.4865 22.2824 9.68481V15.7991ZM21.7177 19.1575C21.1041 19.957 20.8059 20.9742 20.8059 22.2136C20.8059 23.4551 21.1041 24.4691 21.7177 25.2707V19.1575ZM22.2824 19.1575C22.8947 19.957 23.1917 20.9742 23.1917 22.2136C23.1917 23.4551 22.8947 24.4691 22.2824 25.2707V19.1575Z" fill="white"/>
</g>
<defs>
<clipPath id="clip0_70_10183">
<rect width="44" height="39" fill="white" transform="translate(0 -2)"/>
</clipPath>
</defs>
</svg>
