<svg width="33" height="29" viewBox="0 0 33 29" fill="none" xmlns="http://www.w3.org/2000/svg">
<path d="M2 1.87061H5.10714L10.2857 20.8058M10.2857 20.8058H26.8571M10.2857 20.8058C9.18696 20.8058 8.13321 21.1383 7.35627 21.7301C6.57934 22.3219 6.14286 23.1246 6.14286 23.9616C6.14286 24.7986 6.57934 25.6013 7.35627 26.1932C8.13321 26.785 9.18696 27.1175 10.2857 27.1175C11.3845 27.1175 12.4382 26.785 13.2152 26.1932C13.9921 25.6013 14.4286 24.7986 14.4286 23.9616C14.4286 23.1246 13.9921 22.3219 13.2152 21.7301C12.4382 21.1383 11.3845 20.8058 10.2857 20.8058ZM26.8571 20.8058C25.7584 20.8058 24.7046 21.1383 23.9277 21.7301C23.1508 22.3219 22.7143 23.1246 22.7143 23.9616C22.7143 24.7986 23.1508 25.6013 23.9277 26.1932C24.7046 26.785 25.7584 27.1175 26.8571 27.1175C27.9559 27.1175 29.0096 26.785 29.7866 26.1932C30.5635 25.6013 31 24.7986 31 23.9616C31 23.1246 30.5635 22.3219 29.7866 21.7301C29.0096 21.1383 27.9559 20.8058 26.8571 20.8058ZM9.25 16.072H28.4107L31 6.6044H6.78914" stroke="black" stroke-width="3" stroke-linecap="round" stroke-linejoin="round"/>
</svg>
