<svg width="27" height="27" viewBox="0 0 27 27" fill="none" xmlns="http://www.w3.org/2000/svg">
<path d="M19.7982 17.4048H18.5471L18.1037 16.9776C19.0934 15.829 19.8168 14.4761 20.2219 13.0156C20.6271 11.5551 20.7042 10.0232 20.4475 8.52952C19.7032 4.13142 16.0291 0.619276 11.5948 0.08138C10.0358 -0.115639 8.45244 0.0462136 6.96574 0.554553C5.47905 1.06289 4.12846 1.90425 3.01733 3.01423C1.90621 4.12421 1.06399 5.47341 0.555124 6.95858C0.0462612 8.44375 -0.115758 10.0255 0.0814638 11.5829C0.619914 16.0126 4.13568 19.683 8.5383 20.4265C10.0335 20.6829 11.567 20.6059 13.029 20.2012C14.491 19.7964 15.8453 19.0738 16.9951 18.0851L17.4227 18.5281V19.7779L24.1533 26.5016C24.8027 27.1502 25.8637 27.1502 26.513 26.5016C27.1623 25.8529 27.1623 24.793 26.513 24.1443L19.7982 17.4048ZM10.2962 17.4048C6.35282 17.4048 3.16963 14.2249 3.16963 10.2856C3.16963 6.34629 6.35282 3.16637 10.2962 3.16637C14.2395 3.16637 17.4227 6.34629 17.4227 10.2856C17.4227 14.2249 14.2395 17.4048 10.2962 17.4048Z" fill="black"/>
</svg>
