<svg width="298" height="77" viewBox="0 0 298 77" fill="none" xmlns="http://www.w3.org/2000/svg">
<path d="M1 1H288C292.971 1 297 5.02944 297 10V67C297 71.9706 292.971 76 288 76H1V1Z" stroke="black" stroke-width="2"/>
<path d="M127.795 29H123.279C122.989 29 122.7 29.2963 122.642 29.6667L120.847 44.4815C120.789 44.7778 120.963 45 121.195 45H123.337C123.626 45 123.916 44.7037 123.974 44.3333L124.437 40.3333C124.495 39.963 124.726 39.6667 125.074 39.6667H126.521C129.474 39.6667 131.211 37.8148 131.674 34.1852C131.848 32.6296 131.674 31.3704 131.095 30.4815C130.458 29.5185 129.3 29 127.795 29ZM128.316 34.4074C128.084 36.4815 126.811 36.4815 125.653 36.4815H124.958L125.421 32.6296C125.421 32.4074 125.595 32.2593 125.769 32.2593H126.058C126.869 32.2593 127.621 32.2593 128.027 32.8519C128.316 33.1481 128.432 33.6667 128.316 34.4074Z" fill="#003087"/>
<path d="M141.307 34.3642H139.109C138.931 34.3642 138.753 34.5099 138.753 34.7285L138.634 35.457L138.456 35.1656C137.98 34.2914 136.911 34 135.841 34C133.405 34 131.326 36.2583 130.91 39.4636C130.672 41.0662 130.969 42.596 131.742 43.6159C132.395 44.5629 133.405 45 134.534 45C136.495 45 137.624 43.4702 137.624 43.4702L137.505 44.1987C137.445 44.4901 137.624 44.7815 137.861 44.7815H139.881C140.179 44.7815 140.476 44.4901 140.535 44.1258L141.723 34.8013C141.783 34.6556 141.545 34.3642 141.307 34.3642ZM138.277 39.6093C138.04 41.1391 137.089 42.2318 135.782 42.2318C135.128 42.2318 134.653 42.0132 134.297 41.5033C133.94 40.9934 133.821 40.3377 133.94 39.6093C134.118 38.0795 135.188 36.9868 136.435 36.9868C137.089 36.9868 137.564 37.2781 137.921 37.7152C138.218 38.2252 138.337 38.8808 138.277 39.6093Z" fill="#003087"/>
<path d="M152.259 34H150.015C149.772 34 149.59 34.1443 149.469 34.3608L146.314 39.8454L144.98 34.5773C144.919 34.2165 144.616 34 144.373 34H142.129C141.886 34 141.643 34.2887 141.765 34.6495L144.252 43.3814L141.886 47.2784C141.704 47.567 141.886 48 142.189 48H144.434C144.676 48 144.858 47.8557 144.98 47.6392L152.562 34.6495C152.744 34.433 152.562 34 152.259 34Z" fill="#003087"/>
<path d="M159.014 29H154.874C154.609 29 154.343 29.2977 154.29 29.6698L152.645 44.4791C152.592 44.7767 152.751 45 152.963 45H155.086C155.299 45 155.458 44.7767 155.458 44.5535L155.936 40.3116C155.989 39.9395 156.201 39.6419 156.519 39.6419H157.846C160.553 39.6419 162.145 37.7814 162.57 34.1349C162.729 32.5721 162.57 31.307 162.039 30.414C161.402 29.5209 160.394 29 159.014 29ZM159.492 34.4326C159.279 36.5163 158.112 36.5163 157.05 36.5163H156.413L156.838 32.6465C156.838 32.4233 156.997 32.2744 157.156 32.2744H157.422C158.165 32.2744 158.855 32.2744 159.226 32.8698C159.492 33.1674 159.545 33.6884 159.492 34.4326Z" fill="#009CDE"/>
<path d="M172.205 34.3642H170.005C169.826 34.3642 169.648 34.5099 169.648 34.7285L169.529 35.457L169.351 35.1656C168.875 34.2914 167.805 34 166.734 34C164.296 34 162.215 36.2583 161.799 39.4636C161.561 41.0662 161.858 42.596 162.631 43.6159C163.285 44.5629 164.296 45 165.426 45C167.388 45 168.518 43.4702 168.518 43.4702L168.399 44.1987C168.34 44.4901 168.518 44.7815 168.756 44.7815H170.778C171.075 44.7815 171.372 44.4901 171.432 44.1258L172.621 34.8013C172.621 34.6556 172.443 34.3642 172.205 34.3642ZM169.113 39.6093C168.875 41.1391 167.924 42.2318 166.615 42.2318C165.961 42.2318 165.485 42.0132 165.129 41.5033C164.772 40.9934 164.653 40.3377 164.772 39.6093C164.95 38.0795 166.021 36.9868 167.269 36.9868C167.924 36.9868 168.399 37.2781 168.756 37.7152C169.113 38.2252 169.232 38.8808 169.113 39.6093Z" fill="#009CDE"/>
<path d="M174.418 29.3721L172.632 44.4791C172.576 44.7767 172.744 45 172.967 45H174.753C175.032 45 175.311 44.7023 175.367 44.3302L177.153 29.5209C177.209 29.2233 177.041 29 176.818 29H174.809C174.585 29 174.474 29.1488 174.418 29.3721Z" fill="#009CDE"/>
</svg>
