<?xml version="1.0" standalone="no"?>
<!DOCTYPE svg PUBLIC "-//W3C//DTD SVG 20010904//EN"
 "http://www.w3.org/TR/2001/REC-SVG-20010904/DTD/svg10.dtd">
<svg version="1.0" xmlns="http://www.w3.org/2000/svg"
 width="2000.000000pt" height="1414.000000pt" viewBox="0 0 2000.000000 1414.000000"
 preserveAspectRatio="xMidYMid meet">

<g transform="translate(0.000000,1414.000000) scale(0.100000,-0.100000)"
fill="#000000" stroke="none">
<path d="M0 7070 l0 -7070 10000 0 10000 0 0 7070 0 7070 -10000 0 -10000 0 0
-7070z m5970 2208 c94 -15 182 -44 286 -93 265 -124 385 -275 388 -490 0 -49
-3 -107 -7 -128 l-8 -39 -87 84 c-139 134 -282 219 -452 268 -105 31 -346 39
-479 16 -229 -40 -427 -144 -590 -310 -30 -30 -58 -53 -63 -50 -14 9 -9 196 7
257 45 172 142 275 360 382 225 111 416 142 645 103z m12248 -98 c34 -21 223
-153 419 -293 197 -139 459 -325 583 -411 124 -87 239 -172 257 -188 64 -61
57 -88 -72 -313 -696 -1209 -1585 -2092 -2672 -2657 l-152 -79 -35 15 c-38 16
-1152 951 -1205 1011 -34 39 -40 78 -16 112 8 11 72 56 142 98 924 561 1735
1383 2477 2512 123 187 161 233 196 233 9 0 45 -18 78 -40z m-1068 -33 c74
-29 217 -82 317 -118 101 -35 183 -68 183 -72 0 -24 -296 -434 -475 -657 -338
-422 -720 -810 -1100 -1118 -55 -44 -101 -79 -103 -77 -2 1 45 90 103 196 310
566 555 1128 720 1658 76 243 86 257 169 248 28 -3 112 -30 186 -60z m-812
-91 c100 -19 189 -40 197 -46 8 -7 15 -20 15 -30 0 -24 -176 -543 -249 -734
-185 -483 -364 -840 -597 -1192 -80 -122 -123 -178 -149 -194 -20 -12 -38 -20
-40 -18 -2 2 18 62 46 133 184 479 332 1031 424 1580 22 131 65 448 65 476 0
21 50 59 77 59 15 0 110 -16 211 -34z m-14081 -101 c29 -9 69 -32 96 -55 129
-114 131 -300 4 -417 -47 -43 -121 -73 -182 -73 -60 0 -135 30 -182 73 -58 53
-84 107 -91 183 -7 90 18 155 83 220 78 78 166 100 272 69z m-1324 -267 c17
-23 21 -49 27 -176 7 -161 17 -194 65 -212 26 -10 491 -17 501 -8 3 4 18 2 34
-3 39 -14 55 -58 55 -154 -1 -69 -5 -87 -30 -135 -62 -114 -161 -146 -417
-135 l-157 7 -25 -25 -26 -26 0 -394 c0 -422 3 -454 53 -528 36 -53 116 -88
218 -96 98 -7 221 8 306 38 31 10 58 18 59 16 2 -2 6 -35 10 -74 8 -81 -8
-189 -36 -243 -27 -52 -88 -104 -156 -131 -54 -21 -74 -23 -234 -24 -152 0
-185 3 -253 23 -118 34 -193 76 -267 151 -100 101 -149 215 -170 401 -13 109
-12 1261 0 1360 14 109 63 202 144 277 127 116 252 154 299 91z m7861 -323
c351 -92 526 -496 426 -986 -100 -490 -443 -884 -866 -995 -84 -23 -120 -27
-239 -27 -93 0 -165 6 -213 17 -89 19 -136 20 -151 3 -6 -8 -27 -101 -47 -208
-19 -107 -46 -252 -59 -324 -37 -197 -46 -205 -250 -205 -174 0 -185 5 -185
85 0 52 52 343 165 915 126 641 212 1120 266 1480 22 153 36 192 71 211 26 14
266 13 303 -1 28 -11 34 -29 37 -121 l3 -67 80 59 c102 75 220 134 315 159 95
24 261 26 344 5z m1899 -1 c40 -9 108 -33 153 -54 177 -85 268 -244 267 -470
-1 -162 -48 -268 -172 -381 -176 -161 -529 -254 -988 -259 -13 0 -32 -9 -43
-20 -26 -26 -27 -106 -1 -189 51 -165 161 -258 328 -276 116 -14 335 30 455
91 54 28 100 31 122 9 33 -33 67 -209 52 -268 -13 -55 -135 -112 -336 -158
-109 -25 -347 -36 -450 -20 -247 38 -424 161 -526 366 -60 122 -84 237 -84
416 0 277 72 512 228 749 109 164 301 330 467 405 158 71 368 94 528 59z
m1683 5 c32 -5 95 -21 139 -34 109 -33 146 -74 126 -140 -30 -97 -73 -202 -90
-219 -25 -24 -63 -23 -126 5 -185 82 -385 58 -463 -55 -33 -48 -47 -122 -33
-174 18 -64 61 -106 221 -211 170 -113 251 -190 304 -290 113 -216 65 -505
-114 -681 -81 -80 -166 -131 -290 -173 -94 -31 -98 -32 -280 -31 -157 0 -197
4 -263 22 -164 45 -247 100 -247 162 0 16 14 62 30 103 17 42 30 80 30 85 0
21 52 72 73 72 12 0 57 -16 102 -35 112 -48 186 -65 282 -65 106 0 180 26 239
86 83 83 93 199 24 299 -36 52 -76 84 -195 155 -219 131 -344 325 -345 532 0
212 130 408 341 512 130 64 217 85 360 85 63 1 142 -4 175 -10z m2047 -4 c128
-19 205 -40 237 -63 50 -37 49 -53 -44 -517 -124 -625 -160 -864 -172 -1155
-7 -178 -15 -207 -60 -226 -40 -17 -201 -19 -257 -3 -50 14 -73 62 -82 176
l-8 83 -59 -53 c-165 -145 -261 -203 -394 -237 -206 -53 -436 10 -585 159
-120 120 -162 246 -163 486 -1 172 17 291 69 451 70 215 175 385 334 545 192
193 409 306 676 353 109 19 384 20 508 1z m-8405 -65 c317 -76 551 -315 639
-650 30 -116 42 -330 24 -462 -36 -267 -149 -487 -326 -631 -78 -63 -238 -141
-345 -168 -109 -27 -333 -37 -434 -19 -164 29 -302 99 -424 214 -178 169 -276
400 -289 676 -16 356 109 679 336 867 75 62 236 144 327 167 156 40 344 42
492 6z m-1775 -6 c40 -9 109 -33 153 -55 143 -68 213 -169 234 -336 14 -107 0
-163 -41 -163 -10 0 -62 22 -116 49 -141 71 -227 92 -405 98 -115 4 -162 2
-222 -11 -269 -60 -436 -284 -436 -586 0 -178 51 -313 159 -421 114 -113 258
-165 436 -156 99 4 140 20 175 64 22 27 22 33 17 223 -4 107 -11 215 -17 239
-16 67 -8 71 146 73 171 2 247 -26 305 -110 22 -33 24 -48 30 -206 8 -195 -2
-311 -32 -391 -78 -209 -277 -304 -639 -305 -316 0 -551 76 -750 243 -320 269
-418 772 -231 1173 150 319 437 524 811 579 126 19 337 18 423 -1z m-2042 -61
c75 -24 158 -107 190 -188 23 -60 24 -63 29 -600 4 -487 7 -543 22 -572 35
-63 126 -103 236 -103 99 0 107 -9 106 -112 0 -108 -23 -176 -74 -222 -48 -44
-90 -56 -210 -63 -257 -15 -468 132 -536 373 -15 52 -17 142 -21 747 -3 378
-2 699 1 713 4 14 17 29 29 34 38 15 171 11 228 -7z m13383 -2441 c193 -151
354 -278 359 -282 4 -3 1 -15 -7 -25 -13 -18 -32 -10 -387 159 -206 99 -393
190 -417 203 -83 49 -94 99 -34 165 52 58 90 80 115 66 11 -6 178 -134 371
-286z m-12072 122 c241 -291 576 -479 953 -534 122 -18 341 -14 475 9 219 38
440 125 623 248 112 74 272 222 337 312 25 34 48 61 51 61 14 0 21 -206 9
-290 -28 -205 -107 -352 -272 -505 -550 -509 -1485 -495 -2014 30 -178 176
-254 358 -254 605 0 85 8 167 15 158 1 -2 36 -44 77 -94z m12031 -476 c361
-144 656 -262 654 -264 -4 -4 -1310 362 -1339 376 -34 16 -51 61 -37 98 14 36
28 52 48 52 9 0 312 -118 674 -262z"/>
<path d="M8446 8009 c-122 -30 -291 -175 -379 -326 -97 -167 -133 -283 -193
-628 -37 -215 -38 -263 -8 -296 34 -37 211 -64 316 -48 188 29 402 213 517
445 66 134 94 238 110 402 16 176 -13 292 -92 370 -72 70 -182 103 -271 81z"/>
<path d="M10372 8014 c-145 -39 -280 -162 -357 -326 -19 -40 -37 -86 -41 -102
l-7 -29 164 6 c318 12 508 87 564 221 29 70 1 159 -66 208 -52 39 -162 48
-257 22z"/>
<path d="M14000 8020 c-128 -16 -227 -64 -370 -178 -231 -184 -360 -463 -363
-786 -1 -139 17 -201 78 -261 79 -80 212 -97 321 -42 202 102 379 366 458 682
25 99 95 456 103 526 3 23 0 39 -10 48 -20 16 -134 22 -217 11z"/>
<path d="M5654 7887 c-138 -36 -216 -122 -270 -302 -24 -80 -27 -106 -27 -230
0 -155 18 -246 72 -362 69 -146 220 -225 405 -210 171 14 289 128 343 329 26
95 22 336 -6 441 -42 159 -132 273 -248 317 -71 27 -199 35 -269 17z"/>
</g>
</svg>
