<svg width="52" height="54" viewBox="0 0 52 54" fill="none" xmlns="http://www.w3.org/2000/svg">
<path d="M49.8368 35.3371C48.4857 32.0692 45.2357 31.9494 40.8433 32.6025C40.8766 24.9851 42.1124 17.7103 44.4605 9.7605C45.5525 6.91368 37.4162 1.74403 26.0005 1.68834C14.5849 1.74403 6.44772 6.91284 7.53972 9.75965C9.87403 17.6614 11.1017 24.9868 11.1456 32.6C6.75891 31.9494 3.51297 32.0709 2.16178 35.3362C-0.781095 41.4087 8.5204 52.3125 25.9997 52.3125C43.4798 52.3125 52.7805 41.4087 49.8368 35.3371ZM10.1413 40.3675C10.1413 40.3675 11.2439 36.3639 11.0676 34.247C20.6583 43.211 31.3427 43.211 40.9327 34.247C40.9692 36.407 41.8581 40.3675 41.8581 40.3675C32.4168 49.6969 19.5834 49.6969 10.1413 40.3675Z" fill="black"/>
</svg>
