<svg width="50" height="47" viewBox="0 0 50 47" fill="none" xmlns="http://www.w3.org/2000/svg">
<path d="M25 42C35.4934 42 44 33.4934 44 23C44 12.5066 35.4934 4 25 4C14.5066 4 6 12.5066 6 23C6 33.4934 14.5066 42 25 42Z" fill="#2AB73E"/>
<path d="M30.7557 23.893C29.8204 23.893 29.6645 26.1849 28.9073 26.1631C28.1501 26.1413 26.0345 24.6788 24.7428 23.4346C23.4734 22.1686 21.9813 20.1167 21.959 19.3527C21.9368 18.6106 24.2751 18.436 24.2751 17.541C24.2751 16.6242 21.4914 12.5642 20.5783 12.5642C19.6652 12.5642 17.3491 15.2927 17.3491 17.1045C17.3491 18.9162 19.5761 22.3869 22.4267 25.2682L22.8944 25.7266C25.834 28.5424 29.375 30.7034 31.2234 30.7034C33.0718 30.7034 35.8556 28.4332 35.8556 27.5383C35.8333 26.6215 31.6688 23.893 30.7557 23.893Z" fill="white" stroke="#F3F7F8" stroke-width="0.375"/>
<path d="M11.4698 39.5L13.1401 31.8383C12.1825 30.616 11.4476 29.2626 10.9131 27.822C10.3118 26.1849 10 24.4604 10 22.6924C10 18.6323 11.6034 14.8342 14.5431 11.9529C17.4828 9.07162 21.3578 7.5 25.5 7.5C29.6422 7.5 33.5172 9.07162 36.4569 11.9529C39.3743 14.8124 41 18.6323 41 22.6924C41 26.7524 39.3966 30.5505 36.4569 33.4318C33.5172 36.3131 29.6422 37.8847 25.5 37.8847C23.4957 37.8847 21.5582 37.5136 19.732 36.7933L11.4698 39.5ZM25.4777 9.39904C18.0172 9.39904 11.9375 15.3581 11.9375 22.6924C11.9375 25.7483 12.9619 28.6296 14.9217 31.0089L15.2112 31.3581L14.0532 36.6405L19.5984 34.807H19.9547L20.1329 34.8943C21.8254 35.6146 23.6293 35.9638 25.4777 35.9638C32.9605 35.9638 39.0402 30.0048 39.0402 22.6705C39.0402 15.3581 32.9605 9.39904 25.4777 9.39904Z" fill="white" stroke="#F3F7F8" stroke-width="0.375"/>
</svg>
