<svg width="30" height="30" viewBox="0 0 30 30" fill="none" xmlns="http://www.w3.org/2000/svg">
<path fill-rule="evenodd" clip-rule="evenodd" d="M15 0C16.2825 0 17.598 0.0412502 18.873 0.10875L20.379 0.19875L21.8205 0.305625L23.1705 0.42L24.4035 0.54C25.7418 0.667296 27.0012 1.38081 27.9599 2.55488C28.9187 3.72894 29.5152 5.28824 29.6445 6.95813L29.7045 7.755L29.817 9.46125C29.922 11.2294 30 13.1569 30 15C30 16.8431 29.922 18.7706 29.817 20.5388L29.7045 22.245L29.6445 23.0419C29.5152 24.7121 28.9184 26.2716 27.9594 27.4457C27.0003 28.6198 25.7405 29.3331 24.402 29.46L23.172 29.5781L21.822 29.6944L20.379 29.8012L18.873 29.8912C17.5827 29.9611 16.2915 29.9974 15 30C13.7085 29.9974 12.4173 29.9611 11.127 29.8912L9.621 29.8012L8.1795 29.6944L6.8295 29.5781L5.5965 29.46C4.25822 29.3327 2.9988 28.6192 2.04007 27.4451C1.08133 26.2711 0.484786 24.7118 0.3555 23.0419L0.2955 22.245L0.183 20.5388C0.0687491 18.6959 0.00770946 16.8484 0 15C0 13.1569 0.078 11.2294 0.183 9.46125L0.2955 7.755L0.3555 6.95813C0.484736 5.28854 1.08107 3.72947 2.03949 2.55545C2.99792 1.38142 4.25699 0.667718 5.595 0.54L6.8265 0.42L8.1765 0.305625L9.6195 0.19875L11.1255 0.10875C12.4163 0.0388635 13.708 0.00260546 15 0ZM12 10.4531V19.5469C12 20.4131 12.75 20.9531 13.35 20.5219L19.65 15.975C19.7871 15.8764 19.901 15.7343 19.9801 15.5631C20.0593 15.392 20.101 15.1977 20.101 15C20.101 14.8023 20.0593 14.608 19.9801 14.4369C19.901 14.2657 19.7871 14.1236 19.65 14.025L13.35 9.48C13.2131 9.38123 13.0579 9.32925 12.8999 9.32928C12.7418 9.32931 12.5866 9.38136 12.4497 9.48018C12.3129 9.57901 12.1993 9.72113 12.1204 9.89225C12.0414 10.0634 11.9999 10.2575 12 10.455V10.4531Z" fill="#D80027"/>
</svg>
